<?xml version="1.0" standalone="no"?>
<!DOCTYPE svg PUBLIC "-//W3C//DTD SVG 20010904//EN"
 "http://www.w3.org/TR/2001/REC-SVG-20010904/DTD/svg10.dtd">
<svg version="1.0" xmlns="http://www.w3.org/2000/svg"
 width="806.000000pt" height="806.000000pt" viewBox="0 0 806.000000 806.000000"
 preserveAspectRatio="xMidYMid meet">
<metadata>
Created by potrace 1.14, written by Peter Selinger 2001-2017
</metadata>
<g transform="translate(0.000000,806.000000) scale(0.100000,-0.100000)"
fill="#000000" stroke="none">
<path d="M3808 8055 c-2 -1 -48 -5 -104 -9 -55 -4 -110 -8 -122 -11 -11 -2
-45 -6 -74 -9 -29 -4 -63 -8 -75 -10 -11 -3 -43 -8 -70 -11 -280 -40 -714
-173 -1003 -307 -36 -17 -87 -41 -115 -53 -27 -13 -113 -59 -190 -102 -453
-256 -843 -586 -1170 -993 -143 -177 -240 -318 -351 -511 -66 -115 -204 -387
-204 -403 0 -3 -11 -29 -24 -58 -62 -138 -166 -455 -201 -617 -18 -80 -54
-264 -59 -296 -4 -22 -8 -53 -11 -70 -37 -239 -42 -774 -10 -1015 2 -14 6 -47
9 -75 6 -48 9 -71 21 -140 3 -16 8 -46 11 -65 58 -359 248 -894 428 -1205 19
-33 47 -82 62 -110 58 -108 257 -394 357 -512 518 -618 1110 -1022 1871 -1277
140 -47 280 -83 521 -132 11 -2 38 -7 60 -9 22 -3 51 -7 65 -10 134 -27 331
-40 605 -39 287 0 411 9 655 50 14 2 45 7 70 10 25 3 48 8 51 10 3 2 21 6 40
9 124 21 501 131 614 180 17 7 77 32 135 56 625 257 1230 729 1646 1284 56 74
173 244 201 290 102 171 270 485 272 510 1 3 8 22 17 43 108 254 186 507 250
807 7 35 41 260 49 320 25 213 25 668 0 850 -2 17 -6 55 -10 85 -30 293 -121
661 -238 970 -144 379 -396 810 -656 1120 -25 30 -57 68 -71 85 -14 16 -95
100 -180 186 -132 132 -195 190 -325 298 -390 324 -987 628 -1475 752 -41 11
-82 21 -90 24 -44 13 -317 65 -371 71 -35 3 -66 8 -69 9 -3 2 -34 6 -70 10
-36 3 -83 8 -105 11 -42 5 -562 14 -567 9z"/>
</g>
</svg>
